<?xml version="1.0" standalone="no"?>
<!DOCTYPE svg PUBLIC "-//W3C//DTD SVG 20010904//EN"
 "http://www.w3.org/TR/2001/REC-SVG-20010904/DTD/svg10.dtd">
<svg version="1.0" xmlns="http://www.w3.org/2000/svg"
 width="960.000000pt" height="960.000000pt" viewBox="0 0 960.000000 960.000000"
 preserveAspectRatio="xMidYMid meet">
<metadata>
Created by potrace 1.11, written by Peter Selinger 2001-2013
</metadata>
<g transform="translate(0.000000,960.000000) scale(0.100000,-0.100000)"
fill="#000000" stroke="none">
<path d="M4619 7796 c-2 -2 -42 -6 -89 -10 -47 -3 -94 -7 -105 -10 -11 -2 -42
-7 -68 -10 -27 -4 -57 -9 -67 -11 -9 -2 -33 -6 -52 -9 -70 -11 -217 -48 -328
-82 -963 -299 -1720 -1072 -1995 -2040 -14 -50 -27 -100 -29 -110 -3 -10 -14
-66 -26 -124 -12 -58 -24 -125 -26 -150 -3 -25 -7 -51 -9 -58 -26 -78 -26
-619 -1 -762 3 -14 7 -43 10 -65 11 -78 17 -111 27 -155 5 -25 12 -55 14 -67
12 -54 15 -69 31 -122 9 -31 17 -60 18 -66 13 -66 108 -310 177 -452 179 -369
420 -684 729 -954 322 -281 683 -481 1098 -608 73 -22 143 -43 155 -45 49 -11
74 -16 117 -25 44 -10 77 -16 155 -27 22 -3 51 -7 65 -10 143 -25 685 -25 762
1 7 2 33 6 58 9 25 2 92 14 150 26 58 12 112 23 120 25 143 29 410 125 590
212 523 253 933 623 1256 1133 31 49 32 51 92 161 126 230 261 615 298 846 3
19 7 44 9 53 2 10 7 40 11 67 3 26 8 57 10 68 19 96 26 526 11 660 -17 146
-20 166 -42 280 -20 106 -20 107 -45 200 -12 44 -23 85 -24 90 -16 73 -107
309 -168 435 -180 374 -426 698 -738 971 -206 180 -464 348 -687 450 -48 22
-97 44 -108 49 -94 43 -311 117 -426 145 -94 23 -97 24 -189 41 -47 9 -93 18
-103 20 -10 2 -45 6 -78 9 -33 4 -70 9 -82 12 -24 5 -473 14 -478 9z"/>
</g>
</svg>
